# xmcd
#
# Track frame offsets:
#	150
#	10854
#	21538
#	32837
#	41148
#	54361
#	66074
#	79933
#	89520
#	103860
#	115688
#	126952
#	142539
#
# Disc length: 1988 seconds
#
# Revision: 0
# Processed by: cddbd v1.5.1PL0 Copyright (c) Steve Scherf et al.
# Submitted via: dBpowerAMP V4.0
#
DISCID=aa07c20d
DTITLE=Los Gatos - Seremos Amigos
DYEAR=1900
DGENRE=
TTITLE0=Seremos amigos
TTITLE1=Yo vivía en las montañas
TTITLE2=Corriendo en la oscuridad
TTITLE3=Cuatro meses
TTITLE4=Quizás no comprendan
TTITLE5=La chica del paraguas
TTITLE6=Mañana
TTITLE7=No hay tiempo que perder
TTITLE8=Cuando llegue el año 2000
TTITLE9=Esperando a Dios
TTITLE10=No me olvides
TTITLE11=Eres un hada al fin
TTITLE12=Un dia en el campo
EXTD=
EXTT0=
EXTT1=
EXTT2=
EXTT3=
EXTT4=
EXTT5=
EXTT6=
EXTT7=
EXTT8=
EXTT9=
EXTT10=
EXTT11=
EXTT12=
PLAYORDER=
